<?xml version="1.0" encoding="UTF-8"?>
<svg width="31px" height="39px" viewBox="0 0 31 39" version="1.1" xmlns="http://www.w3.org/2000/svg" xmlns:xlink="http://www.w3.org/1999/xlink">
    <!-- Generator: Sketch 52.1 (67048) - http://www.bohemiancoding.com/sketch -->
    <title>monogram-purple</title>
    <desc>Created with Sketch.</desc>
    <defs>
        <linearGradient x1="37.0799736%" y1="100%" x2="0%" y2="6.24500451e-15%" id="linearGradient-1">
            <stop stop-color="#3023AE" offset="0%"></stop>
            <stop stop-color="#9C31FF" offset="100%"></stop>
        </linearGradient>
    </defs>
    <g id="Page-1" stroke="none" stroke-width="1" fill="none" fill-rule="evenodd">
        <g id="r-copy-4" transform="translate(-596.000000, -92.000000)">
            <g id="monogram-purple" transform="translate(596.000000, 92.000000)">
                <path d="M31,27.8752834 C31,29.9372741 30.5574222,31.674974 29.6722533,33.0884354 C28.7870843,34.5018967 27.5940485,35.6409632 26.0931099,36.5056689 C24.5921713,37.3703747 22.860345,38.0022656 20.8975791,38.4013605 C18.9348133,38.8004555 16.8951068,39 14.7783985,39 L9.87150838,39 L0,38.8503401 L0,17 L15.009311,17 C17.2414761,17 19.3292889,17.1912301 21.2728119,17.5736961 C23.216335,17.9561622 24.9096762,18.5714243 26.3528864,19.4195011 C27.7960966,20.2675779 28.9314049,21.3817013 29.7588454,22.7619048 C30.5862859,24.1421082 31,25.8465507 31,27.8752834 Z M21.1801242,27.8758221 C21.1801242,27.0479655 20.9859339,26.3691332 20.5975474,25.839305 C20.2091609,25.3094768 19.684847,24.8955546 19.0245899,24.5975263 C18.3643328,24.2994979 17.6167,24.1008153 16.7816691,24.0014725 C15.9466381,23.9021297 15.0824911,23.852459 14.1892021,23.852459 L9.81987578,23.852459 L9.81987578,32.147541 L14.014429,32.147541 C14.9465567,32.147541 15.8398322,32.0813134 16.6942825,31.9488564 C17.5487328,31.8163993 18.3157847,31.5846029 18.9954611,31.2534603 C19.6751374,30.9223176 20.2091609,30.4835602 20.5975474,29.9371748 C20.9859339,29.3907895 21.1801242,28.7036788 21.1801242,27.8758221 Z" id="P-Copy" fill=""></path>
                <path d="M31,12.0084746 C31,14.2853221 30.5635176,16.2040882 29.6905396,17.7648305 C28.8175616,19.3255728 27.6409568,20.5833286 26.1606898,21.5381356 C24.6804228,22.4929426 22.9724481,23.1906758 21.0367143,23.6313559 C19.1009806,24.0720361 17.0893659,24.2923729 15.0018099,24.2923729 L10.1624997,24.2923729 L10.1624997,39 L0.426946259,39 C-0.208043095,13.8446328 -0.134726419,1.05579096 0.646896286,0.633474576 C1.16289275,0.22719107 6.02377469,0.016032878 15.2295421,0 C17.4309648,0 19.4900233,0.211156081 21.4067792,0.633474576 C23.3235352,1.05579307 24.993555,1.73516481 26.4168886,2.67161017 C27.8402222,3.60805553 28.9598946,4.83826922 29.7759392,6.36228814 C30.5919838,7.88630706 31,9.76835038 31,12.0084746 Z M21.2644466,12.0635593 C21.2644466,11.1454756 21.0746716,10.3926583 20.695116,9.80508475 C20.3155603,9.21751119 19.8031679,8.75847623 19.1579233,8.4279661 C18.5126787,8.09745597 17.7820451,7.87711919 16.9660005,7.76694915 C16.1499559,7.65677911 15.3054572,7.60169492 14.4324793,7.60169492 L10.1624997,7.60169492 L10.1624997,16.8008475 L14.2616801,16.8008475 C15.1726136,16.8008475 16.0455785,16.7274019 16.8806009,16.5805085 C17.7156233,16.4336151 18.4652344,16.1765555 19.1294568,15.809322 C19.7936792,15.4420886 20.3155603,14.9555115 20.695116,14.3495763 C21.0746716,13.743641 21.2644466,12.981643 21.2644466,12.0635593 Z" id="P" fill="url(#linearGradient-1)"></path>
            </g>
        </g>
    </g>
</svg>