<?xml version="1.0" encoding="UTF-8" standalone="no"?>
<svg width="468px" height="195px" viewBox="0 0 468 195" version="1.1" xmlns="http://www.w3.org/2000/svg" xmlns:xlink="http://www.w3.org/1999/xlink">
    <!-- Generator: Sketch 40.1 (33804) - http://www.bohemiancoding.com/sketch -->
    <title>Prakhar Bhardwaj Copy</title>
    <desc>Created with Sketch.</desc>
    <defs></defs>
    <g id="Page-1" stroke="none" stroke-width="1" fill="none" fill-rule="evenodd">
        <g id="iPhone-7" transform="translate(-99.000000, -109.000000)" fill="#2E947D">
            <path d="M139.426719,124.18 L139.426719,176.1 C139.426719,176.32 139.316719,176.54 138.986719,176.54 L133.816719,176.87 C133.706719,179.73 133.706719,183.14 133.706719,186 L147.676719,186 L167.476719,186 C167.586719,183.14 167.586719,179.73 167.586719,176.87 L157.576719,176.54 L157.686719,161.25 C158.456719,161.36 161.426719,161.36 162.856719,161.36 C165.496719,161.36 173.196719,160.48 178.256719,157.84 C185.516719,154.21 191.236719,146.07 191.236719,137.49 C191.236719,128.14 185.406719,119.12 176.386719,116.26 C170.336719,114.39 165.276719,114.39 160.326719,114.39 C151.196719,114.39 141.516719,114.5 133.596719,114.61 C133.596719,117.58 133.486719,120.99 133.486719,123.96 L139.426719,124.18 Z M157.906719,123.63 C158.346719,123.41 159.776719,123.3 161.426719,123.3 C167.696719,123.3 172.646719,129.9 172.646719,138.04 C172.646719,142.88 171.326719,146.84 169.016719,149.04 C167.036719,151.02 164.286719,152.01 161.536719,152.01 C159.666719,152.01 157.686719,151.9 157.686719,150.91 L157.906719,123.63 Z M198.386719,186.11 C203.006719,186.11 209.166719,186 214.006719,186 L230.616719,186 C230.836719,183.03 230.836719,179.95 230.836719,176.98 L221.816719,176.65 L221.816719,170.6 C221.926719,167.52 222.146719,164 223.466719,161.36 C225.556719,157.4 227.206719,155.42 229.186719,153.77 C230.286719,152.89 231.276719,152.78 232.376719,152.78 C235.016719,152.78 238.316719,153.66 239.306719,153.88 C241.396719,152.01 244.476719,143.1 244.476719,137.93 C242.276719,137.16 239.306719,136.5 236.556719,136.5 C231.056719,136.5 228.526719,137.93 221.706719,150.91 L221.046719,150.8 C220.716719,146.07 220.276719,141.45 219.946719,136.72 C219.946719,136.5 219.836719,136.5 219.726719,136.5 C219.176719,136.5 202.786719,138.81 197.836719,139.36 C197.726719,142.22 197.616719,145.41 197.616719,148.38 L204.106719,148.71 L204.106719,176.43 C204.106719,176.65 203.996719,176.76 203.666719,176.87 L198.496719,177.09 C198.386719,179.84 198.386719,183.14 198.386719,186.11 L198.386719,186.11 Z M278.136719,182.26 C279.786719,184.35 281.216719,186.11 282.316719,187.1 C291.116719,187.1 298.926719,185.56 300.686719,184.9 C300.796719,182.04 300.686719,178.74 300.686719,175.88 L294.856719,176.21 C294.306719,176.21 294.306719,175.99 294.306719,175.33 C294.416719,170.6 294.526719,160.26 294.526719,153 C294.526719,143.65 286.166719,136.5 277.696719,136.5 C267.246719,136.5 258.996719,140.9 251.076719,147.28 C252.836719,150.03 254.816719,152.78 256.906719,155.2 C261.196719,152.12 267.026719,149.04 270.766719,149.04 C275.716719,149.04 277.696719,152.23 277.366719,157.73 L272.086719,157.73 C254.596719,157.73 247.336719,168.18 247.336719,174.34 C247.336719,181.27 255.806719,187.1 261.636719,187.1 C265.816719,187.1 270.986719,185.56 277.586719,182.26 L278.136719,182.26 Z M264.826719,172.25 C264.826719,168.95 268.016719,165.76 275.166719,165.76 C275.936719,165.76 276.816719,165.76 277.476719,165.87 L277.476719,173.46 C277.476719,173.57 277.476719,173.9 277.256719,174.12 C275.606719,175.11 272.746719,176.54 269.886719,176.54 C267.686719,176.54 264.826719,174.89 264.826719,172.25 L264.826719,172.25 Z M304.536719,186.11 C309.046719,186.11 314.216719,186 318.726719,186 L332.256719,186 C332.366719,183.14 332.366719,179.95 332.366719,176.98 L328.296719,176.65 C328.406719,173.13 328.406719,167.85 328.516719,164.33 L332.696719,164.33 C334.456719,164.33 336.546719,168.29 338.196719,173.24 C340.066719,178.85 341.496719,183.36 342.926719,186.22 C344.356719,186.22 360.746719,186 364.816719,186 C364.926719,183.14 364.926719,179.84 364.926719,176.87 L359.426719,176.65 C358.876719,176.65 358.216719,176.32 357.776719,175.66 C357.006719,174.23 355.686719,171.37 354.256719,167.96 C351.616719,161.47 348.646719,159.16 346.446719,157.73 L346.446719,156.96 C349.416719,154.65 353.046719,151.57 358.546719,147.06 L362.506719,146.73 C362.616719,143.76 362.726719,140.46 362.726719,137.49 C359.646719,137.49 356.236719,137.49 353.156719,137.6 L337.756719,137.6 C337.646719,140.57 337.646719,143.87 337.646719,146.95 L341.716719,147.17 C341.936719,147.17 342.156719,147.28 341.936719,147.5 C339.076719,150.91 336.216719,153.66 334.346719,155.31 C332.366719,155.53 330.386719,155.64 328.516719,155.64 C328.626719,138.48 328.846719,122.2 328.846719,109.44 C328.846719,109.11 328.736719,109 328.516719,109 C327.416719,109 309.816719,111.31 303.656719,112.08 C303.656719,114.94 303.546719,118.24 303.546719,121.21 L310.586719,121.43 C310.586719,137.93 310.476719,159.38 310.476719,176.21 C310.476719,176.32 310.366719,176.65 310.146719,176.65 L304.756719,176.98 C304.646719,179.84 304.536719,183.14 304.536719,186.11 L304.536719,186.11 Z M367.456719,186.11 C371.746719,186.11 376.916719,186 381.426719,186 L395.946719,186 C396.166719,183.14 396.166719,179.95 396.166719,176.98 L391.106719,176.65 C391.106719,169.94 391.216719,158.94 391.326719,152.23 C393.966719,150.47 397.266719,149.04 399.796719,149.04 C401.886719,149.04 403.096719,149.7 404.086719,151.24 C405.186719,153.11 405.076719,155.86 405.076719,160.15 C405.076719,164.44 405.186719,171.37 405.076719,176.21 C405.076719,176.43 404.966719,176.65 404.746719,176.76 L400.896719,176.98 C400.786719,180.06 400.786719,183.25 400.786719,186.11 C404.966719,186.11 410.246719,186 414.866719,186 L428.396719,186 C428.506719,183.14 428.506719,179.84 428.506719,176.87 L422.896719,176.65 C423.006719,169.06 423.226719,160.48 423.226719,153.66 C423.226719,150.14 422.676719,147.5 421.576719,145.52 C418.936719,140.9 413.216719,136.5 408.596719,136.5 C404.306719,136.5 402.436719,136.83 391.656719,142.11 L391.106719,142 C391.216719,130.78 391.546719,118.57 391.546719,109.44 C391.546719,109.11 391.436719,109 391.216719,109 C390.116719,109 372.736719,111.31 366.466719,111.86 C366.356719,114.72 366.246719,118.13 366.246719,121.21 L373.286719,121.43 L373.286719,176.21 C373.286719,176.43 373.066719,176.65 372.846719,176.65 L367.566719,176.98 C367.456719,179.84 367.456719,183.14 367.456719,186.11 L367.456719,186.11 Z M464.036719,182.26 C465.686719,184.35 467.116719,186.11 468.216719,187.1 C477.016719,187.1 484.826719,185.56 486.586719,184.9 C486.696719,182.04 486.586719,178.74 486.586719,175.88 L480.756719,176.21 C480.206719,176.21 480.206719,175.99 480.206719,175.33 C480.316719,170.6 480.426719,160.26 480.426719,153 C480.426719,143.65 472.066719,136.5 463.596719,136.5 C453.146719,136.5 444.896719,140.9 436.976719,147.28 C438.736719,150.03 440.716719,152.78 442.806719,155.2 C447.096719,152.12 452.926719,149.04 456.666719,149.04 C461.616719,149.04 463.596719,152.23 463.266719,157.73 L457.986719,157.73 C440.496719,157.73 433.236719,168.18 433.236719,174.34 C433.236719,181.27 441.706719,187.1 447.536719,187.1 C451.716719,187.1 456.886719,185.56 463.486719,182.26 L464.036719,182.26 Z M450.726719,172.25 C450.726719,168.95 453.916719,165.76 461.066719,165.76 C461.836719,165.76 462.716719,165.76 463.376719,165.87 L463.376719,173.46 C463.376719,173.57 463.376719,173.9 463.156719,174.12 C461.506719,175.11 458.646719,176.54 455.786719,176.54 C453.586719,176.54 450.726719,174.89 450.726719,172.25 L450.726719,172.25 Z M491.866719,186.11 C496.486719,186.11 502.646719,186 507.486719,186 L524.096719,186 C524.316719,183.03 524.316719,179.95 524.316719,176.98 L515.296719,176.65 L515.296719,170.6 C515.406719,167.52 515.626719,164 516.946719,161.36 C519.036719,157.4 520.686719,155.42 522.666719,153.77 C523.766719,152.89 524.756719,152.78 525.856719,152.78 C528.496719,152.78 531.796719,153.66 532.786719,153.88 C534.876719,152.01 537.956719,143.1 537.956719,137.93 C535.756719,137.16 532.786719,136.5 530.036719,136.5 C524.536719,136.5 522.006719,137.93 515.186719,150.91 L514.526719,150.8 C514.196719,146.07 513.756719,141.45 513.426719,136.72 C513.426719,136.5 513.316719,136.5 513.206719,136.5 C512.656719,136.5 496.266719,138.81 491.316719,139.36 C491.206719,142.22 491.096719,145.41 491.096719,148.38 L497.586719,148.71 L497.586719,176.43 C497.586719,176.65 497.476719,176.76 497.146719,176.87 L491.976719,177.09 C491.866719,179.84 491.866719,183.14 491.866719,186.11 L491.866719,186.11 Z M99.4417187,275 L114.841719,275 C117.041719,275 126.721719,275.11 130.241719,275.11 C149.161719,275.11 160.491719,266.09 160.491719,254.54 C160.491719,245.3 153.121719,238.26 143.881719,236.72 L143.881719,235.84 C150.921719,233.2 156.641719,227.37 156.641719,219.89 C156.641719,214.28 152.241719,208.56 147.291719,206.25 C140.911719,203.39 132.991719,203.39 122.321719,203.39 C116.051719,203.39 105.161719,203.61 99.6617187,203.72 C99.5517187,206.69 99.4417187,209.99 99.4417187,212.85 L105.931719,213.18 L105.821719,265.1 C105.821719,265.43 105.601719,265.65 105.381719,265.65 L99.5517187,265.98 C99.4417187,268.84 99.4417187,272.14 99.4417187,275 L99.4417187,275 Z M124.191719,212.3 C124.961719,212.08 126.061719,211.97 127.931719,211.97 C134.201719,211.97 138.711719,217.25 138.711719,223.08 C138.711719,229.9 133.761719,234.3 126.831719,234.3 C126.061719,234.3 124.411719,234.3 124.081719,234.19 L124.191719,212.3 Z M124.081719,243.21 C124.301719,243.1 125.841719,243.1 126.941719,243.1 C135.851719,243.1 141.131719,249.04 141.131719,255.2 C141.131719,262.57 135.741719,266.42 128.701719,266.42 C126.171719,266.42 123.861719,265.87 123.861719,263.45 L124.081719,243.21 Z M166.761719,275.11 C171.051719,275.11 176.221719,275 180.731719,275 L195.251719,275 C195.471719,272.14 195.471719,268.95 195.471719,265.98 L190.411719,265.65 C190.411719,258.94 190.521719,247.94 190.631719,241.23 C193.271719,239.47 196.571719,238.04 199.101719,238.04 C201.191719,238.04 202.401719,238.7 203.391719,240.24 C204.491719,242.11 204.381719,244.86 204.381719,249.15 C204.381719,253.44 204.491719,260.37 204.381719,265.21 C204.381719,265.43 204.271719,265.65 204.051719,265.76 L200.201719,265.98 C200.091719,269.06 200.091719,272.25 200.091719,275.11 C204.271719,275.11 209.551719,275 214.171719,275 L227.701719,275 C227.811719,272.14 227.811719,268.84 227.811719,265.87 L222.201719,265.65 C222.311719,258.06 222.531719,249.48 222.531719,242.66 C222.531719,239.14 221.981719,236.5 220.881719,234.52 C218.241719,229.9 212.521719,225.5 207.901719,225.5 C203.611719,225.5 201.741719,225.83 190.961719,231.11 L190.411719,231 C190.521719,219.78 190.851719,207.57 190.851719,198.44 C190.851719,198.11 190.741719,198 190.521719,198 C189.421719,198 172.041719,200.31 165.771719,200.86 C165.661719,203.72 165.551719,207.13 165.551719,210.21 L172.591719,210.43 L172.591719,265.21 C172.591719,265.43 172.371719,265.65 172.151719,265.65 L166.871719,265.98 C166.761719,268.84 166.761719,272.14 166.761719,275.11 L166.761719,275.11 Z M263.341719,271.26 C264.991719,273.35 266.421719,275.11 267.521719,276.1 C276.321719,276.1 284.131719,274.56 285.891719,273.9 C286.001719,271.04 285.891719,267.74 285.891719,264.88 L280.061719,265.21 C279.511719,265.21 279.511719,264.99 279.511719,264.33 C279.621719,259.6 279.731719,249.26 279.731719,242 C279.731719,232.65 271.371719,225.5 262.901719,225.5 C252.451719,225.5 244.201719,229.9 236.281719,236.28 C238.041719,239.03 240.021719,241.78 242.111719,244.2 C246.401719,241.12 252.231719,238.04 255.971719,238.04 C260.921719,238.04 262.901719,241.23 262.571719,246.73 L257.291719,246.73 C239.801719,246.73 232.541719,257.18 232.541719,263.34 C232.541719,270.27 241.011719,276.1 246.841719,276.1 C251.021719,276.1 256.191719,274.56 262.791719,271.26 L263.341719,271.26 Z M250.031719,261.25 C250.031719,257.95 253.221719,254.76 260.371719,254.76 C261.141719,254.76 262.021719,254.76 262.681719,254.87 L262.681719,262.46 C262.681719,262.57 262.681719,262.9 262.461719,263.12 C260.811719,264.11 257.951719,265.54 255.091719,265.54 C252.891719,265.54 250.031719,263.89 250.031719,261.25 L250.031719,261.25 Z M291.171719,275.11 C295.791719,275.11 301.951719,275 306.791719,275 L323.401719,275 C323.621719,272.03 323.621719,268.95 323.621719,265.98 L314.601719,265.65 L314.601719,259.6 C314.711719,256.52 314.931719,253 316.251719,250.36 C318.341719,246.4 319.991719,244.42 321.971719,242.77 C323.071719,241.89 324.061719,241.78 325.161719,241.78 C327.801719,241.78 331.101719,242.66 332.091719,242.88 C334.181719,241.01 337.261719,232.1 337.261719,226.93 C335.061719,226.16 332.091719,225.5 329.341719,225.5 C323.841719,225.5 321.311719,226.93 314.491719,239.91 L313.831719,239.8 C313.501719,235.07 313.061719,230.45 312.731719,225.72 C312.731719,225.5 312.621719,225.5 312.511719,225.5 C311.961719,225.5 295.571719,227.81 290.621719,228.36 C290.511719,231.22 290.401719,234.41 290.401719,237.38 L296.891719,237.71 L296.891719,265.43 C296.891719,265.65 296.781719,265.76 296.451719,265.87 L291.281719,266.09 C291.171719,268.84 291.171719,272.14 291.171719,275.11 L291.171719,275.11 Z M376.201719,271.15 C377.411719,273.35 378.621719,274.89 380.271719,276.1 C387.641719,276.1 397.211719,274.56 398.641719,273.9 C398.751719,271.04 398.641719,267.63 398.641719,264.88 L393.031719,265.21 C392.481719,265.21 392.261719,264.77 392.261719,264.11 C392.371719,244.2 392.701719,216.04 392.701719,198.33 C392.701719,198.11 392.591719,198 392.481719,198 C391.271719,198 372.791719,200.31 366.411719,200.86 C366.301719,203.83 366.191719,207.02 366.301719,210.1 L374.551719,210.43 C374.661719,215.82 374.881719,221.43 374.881719,226.49 L374.111719,226.82 C372.021719,226.27 368.611719,225.5 364.651719,225.5 C359.701719,225.5 353.321719,227.7 349.471719,232.1 C343.861719,238.04 341.001719,245.52 341.001719,253.88 C341.001719,261.14 343.861719,267.08 347.601719,270.82 C351.671719,274.78 356.291719,276.1 360.471719,276.1 C363.221719,276.1 365.641719,275.77 375.431719,271.15 L376.201719,271.15 Z M374.661719,260.92 C374.661719,262.02 374.551719,262.57 374.111719,262.79 C371.251719,264.33 369.271719,264.77 367.071719,264.77 C364.981719,264.77 363.001719,263.23 362.121719,261.91 C360.581719,259.49 359.921719,256.3 359.921719,251.9 C359.921719,245.3 360.911719,241.67 362.561719,239.03 C363.771719,236.94 365.971719,236.17 368.061719,236.17 C370.701719,236.17 373.121719,237.05 374.661719,237.71 C374.551719,244.86 374.661719,253.66 374.661719,260.92 L374.661719,260.92 Z M482.021719,235.84 C482.241719,232.87 482.241719,229.46 482.241719,226.6 L473.551719,226.6 L459.361719,226.6 C459.251719,229.57 459.141719,232.87 459.141719,235.95 L464.201719,236.17 C464.531719,236.17 464.641719,236.39 464.641719,236.72 C464.091719,240.35 463.321719,244.86 462.661719,248.05 C461.781719,252.78 461.121719,256.19 459.911719,261.8 L459.141719,261.8 C457.601719,255.2 453.641719,239.25 451.551719,231.11 C445.281719,231.11 438.351719,231.22 437.031719,231.44 C435.271719,236.5 429.441719,254.98 427.681719,261.36 L427.021719,261.14 C426.361719,257.4 425.591719,252.89 424.931719,247.61 C424.161719,242.33 423.721719,238.81 423.501719,236.17 L429.661719,235.95 C429.881719,232.87 429.881719,229.57 429.881719,226.6 L413.491719,226.6 L400.951719,226.6 C400.841719,229.46 400.731719,232.87 400.731719,235.95 L404.691719,236.28 C405.021719,236.28 405.241719,236.5 405.351719,236.72 C406.561719,241.45 407.661719,246.29 409.751719,254.32 C411.511719,261.47 412.831719,266.42 415.361719,276.1 C421.081719,276.1 427.351719,275.99 431.201719,275.88 C434.281719,268.29 438.021719,258.83 440.441719,252.45 L441.101719,252.34 C443.631719,261.58 445.831719,268.62 448.031719,276.1 C455.841719,276.1 460.901719,275.99 464.311719,275.88 C467.391719,267.19 469.261719,261.91 471.791719,254.54 C474.431719,246.95 476.301719,241.23 477.951719,236.06 L482.021719,235.84 Z M515.131719,271.26 C516.781719,273.35 518.211719,275.11 519.311719,276.1 C528.111719,276.1 535.921719,274.56 537.681719,273.9 C537.791719,271.04 537.681719,267.74 537.681719,264.88 L531.851719,265.21 C531.301719,265.21 531.301719,264.99 531.301719,264.33 C531.411719,259.6 531.521719,249.26 531.521719,242 C531.521719,232.65 523.161719,225.5 514.691719,225.5 C504.241719,225.5 495.991719,229.9 488.071719,236.28 C489.831719,239.03 491.811719,241.78 493.901719,244.2 C498.191719,241.12 504.021719,238.04 507.761719,238.04 C512.711719,238.04 514.691719,241.23 514.361719,246.73 L509.081719,246.73 C491.591719,246.73 484.331719,257.18 484.331719,263.34 C484.331719,270.27 492.801719,276.1 498.631719,276.1 C502.811719,276.1 507.981719,274.56 514.581719,271.26 L515.131719,271.26 Z M501.821719,261.25 C501.821719,257.95 505.011719,254.76 512.161719,254.76 C512.931719,254.76 513.811719,254.76 514.471719,254.87 L514.471719,262.46 C514.471719,262.57 514.471719,262.9 514.251719,263.12 C512.601719,264.11 509.741719,265.54 506.881719,265.54 C504.681719,265.54 501.821719,263.89 501.821719,261.25 L501.821719,261.25 Z M555.061719,199.65 C549.011719,199.65 544.831719,204.27 544.831719,209 C544.831719,214.72 550.001719,218.68 554.511719,218.68 C560.561719,218.68 564.851719,214.61 564.851719,208.56 C564.851719,204.27 561.661719,199.65 555.061719,199.65 L555.061719,199.65 Z M548.021719,238.37 L548.241719,266.31 C548.351719,278.08 547.251719,283.03 544.941719,287.21 C543.071719,290.51 538.781719,293.04 534.821719,295.02 C535.151719,298.1 542.081719,303.49 545.711719,303.49 C552.641719,299.97 558.911719,291.39 562.761719,282.92 C565.291719,277.64 565.841719,274.34 565.951719,267.3 C565.951719,254.54 566.061719,238.48 566.061719,225.83 C566.061719,225.61 566.061719,225.5 565.841719,225.5 C565.071719,225.5 545.491719,227.92 539.991719,228.69 C539.991719,231.55 539.771719,235.07 539.771719,238.04 L548.021719,238.37 Z" id="Prakhar-Bhardwaj-Copy"></path>
        </g>
    </g>
</svg>